<svg width="241" height="35" viewBox="0 0 241 35" fill="none" xmlns="http://www.w3.org/2000/svg">
<path d="M4.872 20.26L4.6 10.4C4.6 9.72 4.94 9.38 5.62 9.38C6.3 9.38 6.64 9.76533 6.64 10.536C6.64 11.284 6.65133 11.9527 6.674 12.542C7.15 12.7007 7.762 12.78 8.51 12.78C9.258 12.78 10.0173 12.7233 10.788 12.61C11.5587 12.4967 11.9893 12.44 12.08 12.44C12.76 12.44 13.1 12.78 13.1 13.46C13.1 13.732 12.998 13.9587 12.794 14.14C12.59 14.3213 12.352 14.4347 12.08 14.48C10.3573 14.7067 9.17867 14.82 8.544 14.82C7.90933 14.82 7.30867 14.7633 6.742 14.65C6.92333 20.158 7.014 22.9347 7.014 22.98C7.014 23.66 6.66267 24 5.96 24C5.57467 24 5.042 23.66 4.362 22.98C3.22867 21.8467 2.356 19.988 1.744 17.404C1.15467 14.82 0.86 12.2587 0.86 9.72C0.86 8.632 1.2 7.70267 1.88 6.932C2.56 6.13867 3.46667 5.54933 4.6 5.164C6.75333 4.43867 9.13333 4.076 11.74 4.076C13.1453 4.076 14.1767 4.246 14.834 4.586C15.4913 4.90333 15.82 5.25467 15.82 5.64C15.82 6.32 15.48 6.66 14.8 6.66C14.5733 6.66 14.2787 6.56933 13.916 6.388C13.5533 6.20667 12.8167 6.116 11.706 6.116C10.618 6.116 9.666 6.15 8.85 6.218C8.034 6.286 7.116 6.43333 6.096 6.66C3.96533 7.11333 2.9 8.13333 2.9 9.72C2.9 11.5107 3.05867 13.4033 3.376 15.398C3.69333 17.37 4.192 18.9907 4.872 20.26ZM18.1139 19.444C18.1593 19.376 18.2613 18.8887 18.4199 17.982C18.6013 17.0753 18.8053 16.1913 19.0319 15.33C19.2813 14.446 19.7119 13.63 20.3239 12.882C20.9586 12.134 21.7179 11.76 22.6019 11.76C24.3246 11.76 25.7753 12.2133 26.9539 13.12C28.1553 14.004 28.7559 15.1487 28.7559 16.554C28.7559 17.9593 28.9486 19.2173 29.3339 20.328C29.7193 21.416 30.2293 21.96 30.8639 21.96C31.2946 21.96 31.8273 21.824 32.4619 21.552C33.4819 21.144 34.0826 20.94 34.2639 20.94C34.9439 20.94 35.2839 21.28 35.2839 21.96C35.2839 22.4587 34.9439 22.8213 34.2639 23.048C32.9946 23.6827 31.8499 24 30.8299 24C29.8326 24 29.0053 23.5807 28.3479 22.742C27.6906 21.8807 27.2486 20.9287 27.0219 19.886C26.8179 18.8433 26.7159 17.7213 26.7159 16.52C26.7159 15.7267 26.3306 15.0807 25.5599 14.582C24.7893 14.0607 23.8146 13.8 22.6359 13.8C21.6839 13.8 20.9359 15.3187 20.3919 18.356C20.1653 19.5347 20.0066 20.2147 19.9159 20.396C19.5306 21.1893 18.4766 21.96 16.7539 22.708C16.3459 22.8893 16.0173 22.98 15.7679 22.98C15.0879 22.98 14.7479 22.64 14.7479 21.96C14.7479 21.5293 15.0879 21.178 15.7679 20.906C17.1053 20.362 17.8873 19.8747 18.1139 19.444ZM36.4413 22.028C36.4186 22.028 36.2486 22.1187 35.9313 22.3C35.1153 22.7533 34.5146 22.98 34.1293 22.98C33.4493 22.98 33.1093 22.64 33.1093 21.96C33.1093 21.5293 33.4493 21.178 34.1293 20.906C34.2426 20.8607 34.5146 20.7247 34.9453 20.498C35.3759 20.2713 35.6253 20.1353 35.6933 20.09C35.6026 19.886 35.5573 19.58 35.5573 19.172C35.5573 17.132 36.2713 15.3867 37.6993 13.936C39.1273 12.4853 40.4306 11.76 41.6093 11.76C42.7879 11.76 43.7173 12.0433 44.3973 12.61C45.0773 13.154 45.4173 13.8227 45.4173 14.616C45.4173 15.3867 45.2359 16.0553 44.8733 16.622C44.5106 17.1887 43.9439 17.744 43.1733 18.288C42.1079 19.0587 40.5553 19.954 38.5153 20.974C39.4219 21.6313 40.6799 21.96 42.2893 21.96C43.8986 21.96 45.4853 21.6993 47.0493 21.178C47.5253 21.0193 47.7973 20.94 47.8653 20.94C48.5453 20.94 48.8853 21.28 48.8853 21.96C48.8853 22.4587 48.5453 22.8213 47.8653 23.048C45.9613 23.6827 44.1253 24 42.3573 24C39.8413 24 37.8693 23.3427 36.4413 22.028ZM37.5973 19.172C41.4506 17.2453 43.3773 15.7947 43.3773 14.82C43.3773 14.14 42.8106 13.8 41.6773 13.8C40.9973 13.8 40.1473 14.344 39.1273 15.432C38.1073 16.4973 37.5973 17.744 37.5973 19.172ZM53.1825 5.81C52.7745 5.24333 52.5705 4.66533 52.5705 4.076C52.5705 3.48667 52.7632 2.97667 53.1485 2.546C53.5565 2.11533 54.0552 1.82067 54.6445 1.662C55.2565 1.50333 55.9592 1.356 56.7525 1.22C57.5459 1.084 58.2372 0.981998 58.8265 0.913999C60.3679 0.732666 61.1839 0.641999 61.2745 0.641999C61.3879 0.619332 61.5465 0.607999 61.7505 0.607999C62.4305 0.607999 62.7705 0.947999 62.7705 1.628C62.7705 1.80933 62.6799 2.01333 62.4985 2.24C62.3172 2.46666 62.1359 2.59133 61.9545 2.614C61.7732 2.63667 61.3765 2.69333 60.7645 2.784C60.1752 2.852 59.5632 2.93133 58.9285 3.022C58.2939 3.09 57.6365 3.18067 56.9565 3.294C55.3925 3.566 54.6105 3.82667 54.6105 4.076C54.6105 4.25733 55.0185 4.84667 55.8345 5.844C56.6505 6.81867 57.6025 7.96333 58.6905 9.278C59.8012 10.5927 60.5945 11.6467 61.0705 12.44C61.5692 13.2107 61.8185 14.0833 61.8185 15.058C61.8185 16.01 61.4672 17.0867 60.7645 18.288C60.0845 19.4667 59.2459 20.464 58.2485 21.28C57.2739 22.0733 56.2652 22.7307 55.2225 23.252C54.1799 23.7507 53.2165 24 52.3325 24C51.4712 24 50.7232 23.7167 50.0885 23.15C49.4765 22.5833 49.1705 21.8467 49.1705 20.94C49.1705 18.5147 49.9412 16.5653 51.4825 15.092C53.0465 13.596 54.6785 12.848 56.3785 12.848C56.6959 12.848 57.1945 12.9047 57.8745 13.018C58.5545 13.1313 59.0192 13.256 59.2685 13.392C58.8152 12.644 57.7952 11.3407 56.2085 9.482C54.6219 7.60067 53.6132 6.37667 53.1825 5.81ZM59.6765 15.704C59.3139 15.5227 58.7699 15.3413 58.0445 15.16C57.3192 14.9787 56.7639 14.888 56.3785 14.888C55.2679 14.888 54.1232 15.432 52.9445 16.52C51.7885 17.5853 51.2105 19.0587 51.2105 20.94C51.2105 21.2573 51.3465 21.5067 51.6185 21.688C51.8905 21.8693 52.2532 21.96 52.7065 21.96C53.1599 21.96 53.8399 21.722 54.7465 21.246C55.6759 20.77 56.6392 20.0333 57.6365 19.036C58.6339 18.016 59.3139 16.9053 59.6765 15.704ZM69.5185 5.81C69.1105 5.24333 68.9065 4.66533 68.9065 4.076C68.9065 3.48667 69.0992 2.97667 69.4845 2.546C69.8925 2.11533 70.3912 1.82067 70.9805 1.662C71.5925 1.50333 72.2952 1.356 73.0885 1.22C73.8818 1.084 74.5732 0.981998 75.1625 0.913999C76.7038 0.732666 77.5198 0.641999 77.6105 0.641999C77.7238 0.619332 77.8825 0.607999 78.0865 0.607999C78.7665 0.607999 79.1065 0.947999 79.1065 1.628C79.1065 1.80933 79.0158 2.01333 78.8345 2.24C78.6532 2.46666 78.4718 2.59133 78.2905 2.614C78.1092 2.63667 77.7125 2.69333 77.1005 2.784C76.5112 2.852 75.8992 2.93133 75.2645 3.022C74.6298 3.09 73.9725 3.18067 73.2925 3.294C71.7285 3.566 70.9465 3.82667 70.9465 4.076C70.9465 4.25733 71.3545 4.84667 72.1705 5.844C72.9865 6.81867 73.9385 7.96333 75.0265 9.278C76.1372 10.5927 76.9305 11.6467 77.4065 12.44C77.9052 13.2107 78.1545 14.0833 78.1545 15.058C78.1545 16.01 77.8032 17.0867 77.1005 18.288C76.4205 19.4667 75.5818 20.464 74.5845 21.28C73.6098 22.0733 72.6012 22.7307 71.5585 23.252C70.5158 23.7507 69.5525 24 68.6685 24C67.8072 24 67.0592 23.7167 66.4245 23.15C65.8125 22.5833 65.5065 21.8467 65.5065 20.94C65.5065 18.5147 66.2772 16.5653 67.8185 15.092C69.3825 13.596 71.0145 12.848 72.7145 12.848C73.0318 12.848 73.5305 12.9047 74.2105 13.018C74.8905 13.1313 75.3552 13.256 75.6045 13.392C75.1512 12.644 74.1312 11.3407 72.5445 9.482C70.9578 7.60067 69.9492 6.37667 69.5185 5.81ZM76.0125 15.704C75.6498 15.5227 75.1058 15.3413 74.3805 15.16C73.6552 14.9787 73.0998 14.888 72.7145 14.888C71.6038 14.888 70.4592 15.432 69.2805 16.52C68.1245 17.5853 67.5465 19.0587 67.5465 20.94C67.5465 21.2573 67.6825 21.5067 67.9545 21.688C68.2265 21.8693 68.5892 21.96 69.0425 21.96C69.4958 21.96 70.1758 21.722 71.0825 21.246C72.0118 20.77 72.9752 20.0333 73.9725 19.036C74.9698 18.016 75.6498 16.9053 76.0125 15.704ZM94.0824 14.82C94.0824 17.676 93.9464 20.736 93.6744 24C93.4251 27.2867 93.1078 29.8027 92.7224 31.548C92.2918 33.588 91.2718 34.608 89.6624 34.608C86.7158 34.608 85.2424 32.636 85.2424 28.692C85.2424 27.604 85.5371 26.55 86.1264 25.53C86.7384 24.51 87.4184 24 88.1664 24C88.9371 24 89.3224 24.34 89.3224 25.02C89.3224 25.1787 89.1638 25.3713 88.8464 25.598C87.8038 26.3233 87.2824 27.332 87.2824 28.624C87.2824 29.9387 87.4411 30.9247 87.7584 31.582C88.0984 32.2393 88.7331 32.568 89.6624 32.568C90.2064 32.568 90.5804 32.0467 90.7844 31.004C91.2151 28.9867 91.5664 25.7907 91.8384 21.416C91.9291 20.0333 91.9631 19.1947 91.9404 18.9C91.4644 19.58 91.1131 20.0107 90.8864 20.192C90.6824 20.3507 90.4671 20.5207 90.2404 20.702C90.0364 20.8607 89.8324 20.9967 89.6284 21.11C89.4471 21.2007 89.2091 21.314 88.9144 21.45C88.6424 21.5633 88.3591 21.654 88.0644 21.722C87.3844 21.8807 86.6704 21.96 85.9224 21.96C84.7211 21.96 83.8598 21.28 83.3384 19.92C82.6358 18.1293 82.1484 15.8627 81.8764 13.12C81.8538 12.984 81.8424 12.8027 81.8424 12.576C81.8424 12.032 82.1598 11.76 82.7944 11.76C83.4518 11.76 83.8144 12.1 83.8824 12.78C84.0411 14.276 84.3018 15.84 84.6644 17.472C85.0498 19.104 85.4691 19.92 85.9224 19.92C87.3958 19.92 88.5404 19.546 89.3564 18.798C90.1724 18.05 91.0678 16.724 92.0424 14.82C92.3144 14.14 92.6544 13.8 93.0624 13.8C93.7424 13.8 94.0824 14.14 94.0824 14.82ZM123.285 13.12L122.401 6.116C122.401 5.436 122.718 5.096 123.353 5.096C123.988 5.096 124.35 5.436 124.441 6.116C124.962 9.76533 125.268 12.0207 125.359 12.882C125.472 13.7207 125.654 14.752 125.903 15.976C126.47 18.7413 126.753 20.736 126.753 21.96C126.753 22.64 126.413 22.98 125.733 22.98C125.053 22.98 124.713 22.64 124.713 21.96C124.713 20.9173 124.622 19.988 124.441 19.172C124.282 18.3333 124.135 17.5967 123.999 16.962C123.886 16.3273 123.806 15.9193 123.761 15.738C122.673 16.5767 120.962 16.996 118.627 16.996C118.831 18.7867 118.933 20.1013 118.933 20.94C118.933 22.98 118.026 24 116.213 24C115.102 24 114.309 23.32 113.833 21.96C113.38 20.736 113.153 19.4213 113.153 18.016C113.153 17.0187 113.516 16.2593 114.241 15.738C114.989 15.2167 115.703 14.956 116.383 14.956C115.816 9.992 115.533 6.70533 115.533 5.096C115.533 4.416 115.873 4.076 116.553 4.076C117.233 4.076 117.573 4.43867 117.573 5.164C117.573 5.88933 117.618 6.81867 117.709 7.952C117.8 9.28933 117.981 11.1253 118.253 13.46L118.457 14.956C119.908 14.956 121.075 14.7747 121.959 14.412C122.843 14.0493 123.285 13.6187 123.285 13.12ZM115.193 18.22C115.193 18.6733 115.284 19.41 115.465 20.43C115.669 21.45 115.918 21.96 116.213 21.96C116.53 21.96 116.723 21.892 116.791 21.756C116.859 21.62 116.893 21.348 116.893 20.94L116.553 16.996C116.19 16.996 115.873 17.0867 115.601 17.268C115.329 17.4493 115.193 17.7667 115.193 18.22ZM130.373 22.028C130.35 22.028 130.18 22.1187 129.863 22.3C129.047 22.7533 128.446 22.98 128.061 22.98C127.381 22.98 127.041 22.64 127.041 21.96C127.041 21.5293 127.381 21.178 128.061 20.906C128.174 20.8607 128.446 20.7247 128.877 20.498C129.308 20.2713 129.557 20.1353 129.625 20.09C129.534 19.886 129.489 19.58 129.489 19.172C129.489 17.132 130.203 15.3867 131.631 13.936C133.059 12.4853 134.362 11.76 135.541 11.76C136.72 11.76 137.649 12.0433 138.329 12.61C139.009 13.154 139.349 13.8227 139.349 14.616C139.349 15.3867 139.168 16.0553 138.805 16.622C138.442 17.1887 137.876 17.744 137.105 18.288C136.04 19.0587 134.487 19.954 132.447 20.974C133.354 21.6313 134.612 21.96 136.221 21.96C137.83 21.96 139.417 21.6993 140.981 21.178C141.457 21.0193 141.729 20.94 141.797 20.94C142.477 20.94 142.817 21.28 142.817 21.96C142.817 22.4587 142.477 22.8213 141.797 23.048C139.893 23.6827 138.057 24 136.289 24C133.773 24 131.801 23.3427 130.373 22.028ZM131.529 19.172C135.382 17.2453 137.309 15.7947 137.309 14.82C137.309 14.14 136.742 13.8 135.609 13.8C134.929 13.8 134.079 14.344 133.059 15.432C132.039 16.4973 131.529 17.744 131.529 19.172ZM149.596 7.136C149.959 7.136 150.333 7.306 150.718 7.646C151.104 7.96333 151.296 8.30333 151.296 8.666C151.296 9.006 151.138 9.26667 150.82 9.448C150.526 9.62933 150.197 9.72 149.834 9.72C149.472 9.72 149.166 9.56133 148.916 9.244C148.69 8.904 148.576 8.54133 148.576 8.156C148.576 7.476 148.916 7.136 149.596 7.136ZM146.536 19.784C145.267 21.144 143.975 22.1187 142.66 22.708C142.252 22.8893 141.924 22.98 141.674 22.98C140.994 22.98 140.654 22.64 140.654 21.96C140.654 21.5293 140.994 21.178 141.674 20.906C142.037 20.77 142.513 20.498 143.102 20.09C143.714 19.682 144.122 19.376 144.326 19.172C144.53 18.968 144.882 18.594 145.38 18.05C145.902 17.506 146.31 17.098 146.604 16.826C146.899 16.5313 147.296 16.2367 147.794 15.942C148.316 15.6473 148.792 15.5 149.222 15.5C150.106 15.5 150.786 15.8173 151.262 16.452C151.738 17.0867 152.022 17.7893 152.112 18.56C152.362 20.6 152.758 21.62 153.302 21.62C153.733 21.62 154.288 21.5067 154.968 21.28C155.648 21.0533 156.022 20.94 156.09 20.94C156.77 20.94 157.11 21.28 157.11 21.96C157.11 22.4587 156.77 22.8213 156.09 23.048C154.866 23.456 153.869 23.66 153.098 23.66C152.35 23.66 151.738 23.3427 151.262 22.708C150.786 22.0733 150.503 21.3707 150.412 20.6C150.163 18.56 149.766 17.54 149.222 17.54C148.928 17.54 148.588 17.7327 148.202 18.118C147.84 18.4807 147.545 18.7753 147.318 19.002C147.092 19.206 146.831 19.4667 146.536 19.784ZM182.812 18.628C183.514 18.084 184.036 17.5287 184.376 16.962C184.738 16.3727 184.92 15.8967 184.92 15.534C184.92 15.1713 184.772 14.854 184.478 14.582C184.206 14.2873 183.888 14.14 183.526 14.14C183.186 14.14 182.88 14.2873 182.608 14.582C182.336 14.8767 182.2 15.4093 182.2 16.18C182.2 16.9507 182.404 17.7667 182.812 18.628ZM160.542 16.622C160.02 17.8007 159.431 19.0587 158.774 20.396C158.116 21.7107 157.527 22.47 157.006 22.674C156.507 22.878 156.156 22.98 155.952 22.98C155.272 22.98 154.932 22.64 154.932 21.96C154.932 21.5293 155.272 21.178 155.952 20.906C156.518 20.702 157.278 19.2627 158.23 16.588C158.57 15.636 159.057 14.7633 159.692 13.97C160.326 13.1767 161.04 12.78 161.834 12.78C162.627 12.78 163.386 13.1767 164.112 13.97C164.837 14.7633 165.2 16.18 165.2 18.22C165.2 20.26 165.54 21.28 166.22 21.28C166.401 21.28 166.548 21.1667 166.662 20.94C166.798 20.6907 166.9 20.4867 166.968 20.328C167.036 20.1693 167.104 19.9653 167.172 19.716C167.262 19.444 167.33 19.24 167.376 19.104C167.489 18.5827 167.58 18.22 167.648 18.016C168.464 14.752 169.801 13.12 171.66 13.12C172.634 13.12 173.541 13.5393 174.38 14.378C175.241 15.194 175.796 16.316 176.046 17.744C176.136 18.3333 176.442 18.8433 176.964 19.274C177.485 19.7047 178.142 19.92 178.936 19.92C179.752 19.92 180.443 19.818 181.01 19.614C180.443 18.4353 180.16 17.2 180.16 15.908C180.16 14.5933 180.477 13.63 181.112 13.018C181.746 12.406 182.54 12.1 183.492 12.1C184.444 12.1 185.26 12.44 185.94 13.12C186.62 13.8 186.96 14.5593 186.96 15.398C186.96 16.214 186.699 17.0527 186.178 17.914C185.679 18.7753 184.942 19.5687 183.968 20.294C184.92 21.178 185.985 21.62 187.164 21.62C188.365 21.62 189.306 21.5067 189.986 21.28C190.666 21.0533 191.04 20.94 191.108 20.94C191.788 20.94 192.128 21.28 192.128 21.96C192.128 22.4587 191.788 22.8213 191.108 23.048C189.884 23.456 188.614 23.66 187.3 23.66C185.237 23.66 183.526 22.8893 182.166 21.348C181.168 21.756 180.103 21.96 178.97 21.96C177.836 21.96 176.782 21.62 175.808 20.94C174.833 20.2373 174.255 19.376 174.074 18.356C173.915 17.3133 173.609 16.52 173.156 15.976C172.702 15.432 172.204 15.16 171.66 15.16C170.889 15.16 170.209 16.3047 169.62 18.594C169.212 20.3847 168.736 21.62 168.192 22.3C167.648 22.98 166.934 23.32 166.05 23.32C165.166 23.32 164.463 22.844 163.942 21.892C163.42 20.94 163.16 19.7953 163.16 18.458C163.16 17.1207 163.024 16.18 162.752 15.636C162.48 15.092 162.162 14.82 161.8 14.82C161.482 14.82 161.063 15.4207 160.542 16.622ZM201.929 23.66C200.727 23.66 199.798 23.116 199.141 22.028C198.506 20.94 198.189 19.6933 198.189 18.288C198.189 17.5627 198.529 17.2 199.209 17.2C199.889 17.2 200.229 17.608 200.229 18.424C200.229 19.24 200.387 19.9767 200.705 20.634C201.022 21.2913 201.407 21.62 201.861 21.62C202.337 21.62 202.915 21.5067 203.595 21.28C204.275 21.0533 204.649 20.94 204.717 20.94C205.397 20.94 205.737 21.28 205.737 21.96C205.737 22.4587 205.397 22.8213 204.717 23.048C203.493 23.456 202.563 23.66 201.929 23.66ZM195.129 1.628L195.095 2.206C194.823 4.926 194.641 6.94333 194.551 8.258C194.483 9.57267 194.449 11.1593 194.449 13.018C194.449 14.854 194.505 16.0553 194.619 16.622C195.163 15.4207 196.092 14.31 197.407 13.29C198.721 12.27 200.342 11.76 202.269 11.76C202.949 11.76 203.289 12.1 203.289 12.78C203.289 13.46 202.949 13.8 202.269 13.8C201.339 13.8 200.478 13.97 199.685 14.31C198.914 14.65 198.302 15.0693 197.849 15.568C196.987 16.52 196.443 17.37 196.217 18.118C196.171 18.254 196.092 18.5487 195.979 19.002C195.888 19.4327 195.82 19.716 195.775 19.852C195.752 20.0107 195.673 20.2147 195.537 20.464C195.31 20.8947 194.947 21.11 194.449 21.11C193.973 21.11 193.508 20.362 193.055 18.866C192.624 17.3473 192.409 15.9987 192.409 14.82C192.409 13.6413 192.409 12.5873 192.409 11.658C192.431 10.706 192.443 9.958 192.443 9.414C192.465 8.84733 192.511 8.156 192.579 7.34C192.647 6.524 192.681 5.99133 192.681 5.742C192.726 4.67667 192.862 3.294 193.089 1.594C193.157 0.936666 193.497 0.607999 194.109 0.607999C194.789 0.607999 195.129 0.947999 195.129 1.628ZM206.906 22.028C206.883 22.028 206.713 22.1187 206.396 22.3C205.58 22.7533 204.979 22.98 204.594 22.98C203.914 22.98 203.574 22.64 203.574 21.96C203.574 21.5293 203.914 21.178 204.594 20.906C204.707 20.8607 204.979 20.7247 205.41 20.498C205.841 20.2713 206.09 20.1353 206.158 20.09C206.067 19.886 206.022 19.58 206.022 19.172C206.022 17.132 206.736 15.3867 208.164 13.936C209.592 12.4853 210.895 11.76 212.074 11.76C213.253 11.76 214.182 12.0433 214.862 12.61C215.542 13.154 215.882 13.8227 215.882 14.616C215.882 15.3867 215.701 16.0553 215.338 16.622C214.975 17.1887 214.409 17.744 213.638 18.288C212.573 19.0587 211.02 19.954 208.98 20.974C209.887 21.6313 211.145 21.96 212.754 21.96C214.363 21.96 215.95 21.6993 217.514 21.178C217.99 21.0193 218.262 20.94 218.33 20.94C219.01 20.94 219.35 21.28 219.35 21.96C219.35 22.4587 219.01 22.8213 218.33 23.048C216.426 23.6827 214.59 24 212.822 24C210.306 24 208.334 23.3427 206.906 22.028ZM208.062 19.172C211.915 17.2453 213.842 15.7947 213.842 14.82C213.842 14.14 213.275 13.8 212.142 13.8C211.462 13.8 210.612 14.344 209.592 15.432C208.572 16.4973 208.062 17.744 208.062 19.172ZM239.763 23.048C238.539 23.456 237.587 23.66 236.907 23.66C236.227 23.66 235.695 23.4107 235.309 22.912C234.924 22.4133 234.573 21.5633 234.255 20.362C233.961 19.1607 233.734 18.56 233.575 18.56C232.986 18.56 232.363 19.4667 231.705 21.28C231.456 21.96 231.048 22.5833 230.481 23.15C229.915 23.7167 229.201 24 228.339 24C227.501 24 226.843 23.626 226.367 22.878C225.891 22.13 225.608 21.314 225.517 20.43C225.449 19.546 225.336 18.73 225.177 17.982C225.019 17.234 224.758 16.86 224.395 16.86C224.146 16.86 223.965 16.928 223.851 17.064C223.738 17.2 223.636 17.336 223.545 17.472C223.477 17.5853 223.398 17.71 223.307 17.846C223.239 17.9593 223.149 18.118 223.035 18.322C222.945 18.526 222.831 18.7413 222.695 18.968C222.242 19.7613 221.879 20.3507 221.607 20.736C221.063 21.5973 220.259 22.2547 219.193 22.708C218.785 22.8893 218.457 22.98 218.207 22.98C217.527 22.98 217.187 22.64 217.187 21.96C217.187 21.5293 217.55 21.178 218.275 20.906C219.001 20.634 219.511 20.2487 219.805 19.75C220.123 19.2287 220.474 18.6393 220.859 17.982C221.245 17.3247 221.505 16.8827 221.641 16.656C221.8 16.4293 221.993 16.1573 222.219 15.84C222.446 15.5 222.65 15.2847 222.831 15.194C223.307 14.9447 223.829 14.82 224.395 14.82C225.325 14.82 226.027 15.194 226.503 15.942C226.979 16.69 227.251 17.506 227.319 18.39C227.41 19.274 227.535 20.09 227.693 20.838C227.852 21.586 228.113 21.96 228.475 21.96C228.838 21.96 229.178 21.6767 229.495 21.11C229.835 20.5433 230.13 19.92 230.379 19.24C230.629 18.56 231.025 17.9367 231.569 17.37C232.136 16.8033 232.805 16.52 233.575 16.52C234.165 16.52 234.595 16.6673 234.867 16.962C235.139 17.234 235.332 17.4493 235.445 17.608C235.581 17.7667 235.695 18.0047 235.785 18.322C235.899 18.6393 235.978 18.8773 236.023 19.036C236.069 19.172 236.137 19.4213 236.227 19.784C236.499 21.0307 236.749 21.6427 236.975 21.62C237.406 21.62 237.961 21.5067 238.641 21.28C239.321 21.0533 239.695 20.94 239.763 20.94C240.443 20.94 240.783 21.28 240.783 21.96C240.783 22.4587 240.443 22.8213 239.763 23.048Z" fill="#D7E4DD"/>
</svg>
