<svg width="94" height="48" viewBox="0 0 94 48" fill="none" xmlns="http://www.w3.org/2000/svg">
<g clip-path="url(#clip0_23_7)">
<path d="M39.8144 17.2508L36.6134 27.0428C36.6069 27.0602 36.6134 27.0775 36.6287 27.0884C36.6287 27.0884 36.6527 27.1101 36.6767 27.1275C36.7029 27.1449 36.7291 27.1622 36.7291 27.1622C36.7443 27.1731 36.764 27.1731 36.7771 27.1622L45.1427 21.1063L53.5062 27.1622C53.5193 27.1731 53.539 27.1731 53.5542 27.1622C53.5542 27.1622 53.5804 27.147 53.6066 27.1275C53.6328 27.1079 53.6546 27.0884 53.6546 27.0884C53.6699 27.0775 53.6764 27.058 53.6699 27.0428L50.4689 17.2529L58.839 11.2057C58.8542 11.1948 58.8608 11.1775 58.8542 11.1601C58.8542 11.1601 58.8477 11.1297 58.8368 11.0993C58.8281 11.0688 58.815 11.0406 58.815 11.0406C58.8106 11.0232 58.7932 11.0124 58.7757 11.0124L48.4332 11.0167L45.2453 1.22035C45.2409 1.20297 45.2235 1.19211 45.206 1.19211C45.206 1.19211 45.1755 1.18994 45.1427 1.18994C45.1122 1.18994 45.0795 1.19211 45.0795 1.19211C45.062 1.19211 45.0446 1.20515 45.0402 1.22035L41.8502 11.0145L31.5076 11.0102C31.4902 11.0102 31.4749 11.0211 31.4683 11.0384C31.4683 11.0384 31.4552 11.0667 31.4465 11.0971C31.4378 11.1275 31.4312 11.1579 31.4312 11.1579C31.4247 11.1753 31.4312 11.1948 31.4465 11.2035L39.8144 17.2508Z" fill="#E3000F"/>
<path d="M53.6983 28.3354C53.539 28.3354 53.3862 28.2898 53.2575 28.2072C53.2575 28.2072 52.9237 28.0009 52.4087 27.6533C50.9053 26.6433 47.22 24.154 45.1428 22.69C43.1528 24.0932 39.7468 26.3957 37.879 27.6533C37.3597 28.003 37.0258 28.2094 37.0236 28.2116C36.9015 28.2919 36.7509 28.3354 36.5894 28.3354C36.4432 28.3354 36.2971 28.2963 36.1858 28.2311C36.0832 28.1703 35.9959 28.1051 35.9741 28.0899C35.9348 28.066 35.8738 28.0204 35.7756 27.9357C35.5966 27.7815 35.4461 27.4622 35.5377 27.1298C35.5377 27.1277 35.6294 26.7606 35.8039 26.1545C36.428 23.9976 37.5735 20.066 38.3023 17.7418C36.3451 16.2908 33.0939 13.7777 31.3156 12.3984C30.8203 12.0139 30.5214 11.7619 30.5192 11.7598C30.2639 11.5577 30.1854 11.2102 30.2421 10.9734C30.2683 10.8627 30.2988 10.7671 30.3097 10.7345C30.3206 10.6867 30.3468 10.6129 30.397 10.4934C30.4886 10.2762 30.7461 10.0351 31.0931 10.0199C31.0909 10.0199 31.4749 9.99164 32.1077 9.96991C34.3638 9.89389 38.479 9.76356 40.9163 9.73532C41.6974 7.4372 43.0939 3.57947 43.8619 1.46815C44.078 0.872982 44.2242 0.518923 44.2263 0.516751C44.3398 0.214823 44.6475 0.0323631 44.8918 0.0106417C44.9835 0.00195312 45.0686 0.00195312 45.1122 0.00195312H45.1493H45.1755C45.2213 0.00195312 45.3064 0.00412527 45.3981 0.0106417C45.6337 0.030191 45.9435 0.199618 46.0657 0.523267C46.1006 0.607981 46.2425 0.966384 46.4258 1.46815C47.196 3.58382 48.5946 7.44589 49.3714 9.73532C51.813 9.76356 55.9261 9.89389 58.18 9.96991C58.815 9.99164 59.1968 10.0199 59.2012 10.0199C59.5416 10.0351 59.7991 10.2762 59.8907 10.4934C59.9322 10.589 59.9627 10.6824 59.9758 10.7236C60.002 10.7801 60.0216 10.8605 60.0478 10.9713C60.1024 11.2015 60.0369 11.5469 59.7641 11.7619C59.7118 11.8054 59.4238 12.0443 58.9721 12.394C57.1916 13.7755 53.9405 16.2887 51.9854 17.7397C52.7142 20.0617 53.8597 23.9954 54.4816 26.1524C54.6583 26.7649 54.75 27.1342 54.75 27.1364C54.8416 27.4622 54.6889 27.7793 54.51 27.9335C54.427 28.0052 54.3485 28.0617 54.318 28.0834C54.2743 28.1225 54.2045 28.1681 54.1019 28.2289C53.9907 28.2985 53.8445 28.3354 53.6983 28.3354Z" fill="white"/>
<path d="M39.8144 17.2508L36.6134 27.0428C36.6069 27.0602 36.6134 27.0775 36.6287 27.0884C36.6287 27.0884 36.6527 27.1101 36.6767 27.1275C36.7029 27.1449 36.7291 27.1622 36.7291 27.1622C36.7443 27.1731 36.764 27.1731 36.7771 27.1622L45.1427 21.1063L53.5062 27.1622C53.5193 27.1731 53.539 27.1731 53.5542 27.1622C53.5542 27.1622 53.5826 27.147 53.6066 27.1275C53.6328 27.1079 53.6546 27.0884 53.6546 27.0884C53.6699 27.0775 53.6764 27.058 53.6699 27.0428L50.4689 17.2529L58.839 11.2057C58.8542 11.1948 58.8608 11.1775 58.8542 11.1601C58.8542 11.1601 58.8477 11.1297 58.8368 11.0993C58.8281 11.0688 58.815 11.0406 58.815 11.0406C58.8106 11.0232 58.7932 11.0124 58.7757 11.0124L48.4332 11.0167L45.2453 1.22035C45.2409 1.20297 45.2235 1.19211 45.206 1.19211C45.206 1.19211 45.1755 1.18994 45.1427 1.18994C45.1122 1.18994 45.0795 1.19211 45.0795 1.19211C45.0598 1.19211 45.0446 1.20515 45.0402 1.22035L41.8502 11.0145L31.5076 11.0102C31.4902 11.0102 31.4749 11.0211 31.4683 11.0384C31.4683 11.0384 31.4552 11.0667 31.4465 11.0971C31.4378 11.1275 31.4312 11.1579 31.4312 11.1579C31.4247 11.1753 31.4312 11.1948 31.4465 11.2035L39.8144 17.2508Z" fill="#E3000F"/>
<path d="M64.4794 25.0532L64.4859 24.962H63.8728C63.8488 25.5093 64.1826 25.8764 64.739 25.8764C65.3456 25.8764 65.7122 25.5093 65.7122 24.9055C65.7122 24.5579 65.5725 24.2213 65.206 24.1322V24.1213C65.5267 23.9932 65.6096 23.6609 65.6096 23.3524C65.6096 22.8289 65.3042 22.4966 64.7739 22.4966C64.1717 22.4966 63.9819 22.9332 64.0015 23.4632H64.571V23.3958C64.571 23.2525 64.6016 23.0548 64.7892 23.0548C64.979 23.0548 65.014 23.2438 65.014 23.3893C65.014 23.7543 64.8656 23.8216 64.5099 23.8216V24.3885C64.8809 24.3755 65.0052 24.4776 65.0052 24.8447C65.0052 25.038 64.9878 25.3073 64.7216 25.3073C64.5492 25.3073 64.4794 25.1596 64.4794 25.0532Z" fill="white"/>
<path d="M63.1877 22.5444H61.4094V23.107H62.2931L61.2676 25.8222H61.9484L63.1877 22.5444Z" fill="white"/>
<path d="M59.7881 24.0564V24.0477C60.0936 23.9456 60.2398 23.6654 60.2398 23.3548C60.2398 22.8748 59.9147 22.4946 59.4172 22.4946C58.9131 22.4946 58.5924 22.8726 58.5924 23.3548C58.5924 23.6676 58.7495 23.9456 59.0397 24.0455V24.0564C58.6338 24.1932 58.468 24.5017 58.468 24.9231C58.468 25.4618 58.8673 25.8745 59.4172 25.8745C59.9692 25.8745 60.3576 25.4618 60.3576 24.9231C60.3576 24.5104 60.2027 24.1867 59.7881 24.0564ZM59.4041 23.0007C59.5808 23.0007 59.6048 23.2288 59.6048 23.3505C59.6048 23.4677 59.6048 23.7175 59.4041 23.7175C59.2404 23.7175 59.2208 23.4677 59.2208 23.3461C59.2208 23.2266 59.247 23.0007 59.4041 23.0007ZM59.4106 25.3076C59.1837 25.3076 59.1379 25.01 59.1379 24.8449C59.1379 24.6755 59.1859 24.3692 59.4063 24.3692C59.6179 24.3692 59.6965 24.682 59.6965 24.8449C59.6965 25.0035 59.6332 25.3076 59.4106 25.3076Z" fill="white"/>
<path d="M57.3269 22.5444H56.3821V23.107H56.6985V25.8222H57.3269V22.5444Z" fill="white"/>
<path d="M26.7226 22.5444H25.2825V25.8222H26.7291V25.2118H25.9938V24.4733H26.6331V23.8651H25.9938V23.1505H26.7226V22.5444Z" fill="white"/>
<path d="M33.585 25.0488C33.3493 25.0488 33.166 25.2313 33.166 25.4572C33.166 25.6874 33.3493 25.8742 33.585 25.8742C33.8141 25.8742 33.9908 25.6874 33.9908 25.4572C33.9908 25.2335 33.8141 25.0488 33.585 25.0488Z" fill="white"/>
<path d="M32.6815 22.5444H30.8442V23.1505H31.4028V25.8222H32.1207V23.1505H32.6815V22.5444Z" fill="white"/>
<path d="M29.6027 23.2829V22.6508C29.3998 22.5509 29.1968 22.4966 28.9634 22.4966C28.3502 22.4966 28.0208 22.9354 28.0208 23.4588C28.0208 23.9324 28.2717 24.1778 28.6863 24.4298C28.8848 24.5666 29.1096 24.6579 29.1096 24.9077C29.1096 25.127 28.9306 25.2661 28.6928 25.2661C28.4855 25.2661 28.3197 25.1987 28.1539 25.0901V25.7135C28.3197 25.82 28.5662 25.8786 28.7692 25.8786C29.4369 25.8786 29.8078 25.4355 29.8078 24.8534C29.8078 23.9649 28.719 23.9324 28.719 23.3958C28.719 23.1982 28.8608 23.0722 29.0768 23.0722C29.2797 23.07 29.4521 23.1678 29.6027 23.2829Z" fill="white"/>
<path d="M23.3099 44.4787C22.712 45.076 21.9309 45.6712 21.165 45.9144C20.4428 46.1469 18.3808 46.325 17.7742 44.6307C17.6433 44.2636 17.7502 44.1507 18.0841 44.0529C18.5816 43.9052 19.8624 43.5316 21.2152 43.0255C22.4415 42.5693 23.5368 42.0111 23.8794 41.783C24.4925 41.3812 24.5842 40.8164 24.3158 40.2104C23.4539 38.2837 21.5054 36.2658 18.2674 36.8805C15.6926 37.3692 13.8489 39.676 13.8489 42.3152C13.8489 45.5821 15.8257 47.4936 18.3437 48.0866C20.6697 48.6383 23.4081 47.5153 24.5776 45.6277C25.0402 44.8957 23.7332 44.0334 23.3099 44.4787ZM17.4819 41.9068C17.2288 41.2139 17.4317 39.0939 18.6056 38.6921C19.8406 38.2707 20.5977 38.9049 20.9665 40.1431C21.1039 40.6014 21.0734 41.0858 20.9228 41.2704C20.7046 41.5332 20.3141 41.6918 19.9628 41.8091L19.0376 42.1154C18.1277 42.4216 17.6957 42.4846 17.4819 41.9068Z" fill="white"/>
<path d="M53.4605 44.4787C52.8627 45.076 52.0815 45.6712 51.3157 45.9144C50.5934 46.1469 48.5315 46.325 47.9249 44.6307C47.794 44.2636 47.9009 44.1507 48.2347 44.0529C48.7322 43.9052 50.013 43.5316 51.3658 43.0255C52.5921 42.5693 53.6875 42.0111 54.03 41.783C54.6432 41.3812 54.7348 40.8164 54.4664 40.2104C53.6045 38.2837 51.656 36.2658 48.418 36.8805C45.8433 37.3692 43.9995 39.676 43.9995 42.3152C43.9995 45.5821 45.9786 47.4936 48.4944 48.0866C50.8204 48.6383 53.5565 47.5153 54.7283 45.6277C55.1908 44.8957 53.8838 44.0334 53.4605 44.4787ZM47.6303 41.9068C47.4798 41.492 47.4907 40.5688 47.7743 39.8064C47.9663 39.2938 48.2522 38.8941 48.7518 38.6942C49.317 38.4683 49.7992 38.5313 50.1767 38.7464C50.6087 38.994 50.9164 39.4827 51.1127 40.1452C51.2502 40.6036 51.2197 41.0879 51.0691 41.2726C50.8509 41.5354 50.5083 41.6701 50.109 41.8113C49.7097 41.9546 49.3519 42.0676 49.1839 42.1219C48.2718 42.4043 47.8441 42.4846 47.6303 41.9068Z" fill="white"/>
<path d="M76.4432 44.4787C75.8453 45.076 75.0642 45.6712 74.2983 45.9144C73.5761 46.1469 71.5141 46.325 70.9075 44.6307C70.7766 44.2636 70.8835 44.1507 71.2174 44.0529C71.7149 43.9052 72.9957 43.5316 74.3485 43.0255C75.5748 42.5693 76.6701 42.0111 77.0127 41.783C77.6258 41.3812 77.7175 40.8164 77.4491 40.2104C76.5872 38.2837 74.6387 36.2658 71.4007 36.8805C68.8259 37.3692 66.9822 39.676 66.9822 42.3152C66.9822 45.5821 68.959 47.4936 71.477 48.0866C73.803 48.6383 76.5414 47.5153 77.7109 45.6277C78.1735 44.8957 76.8665 44.0334 76.4432 44.4787ZM70.613 41.9068C70.4624 41.492 70.4733 40.5688 70.7592 39.8064C70.9512 39.2938 71.237 38.8941 71.7367 38.6942C72.3018 38.4683 72.784 38.5313 73.1615 38.7464C73.5935 38.994 73.9012 39.4827 74.0976 40.1452C74.235 40.6036 74.2045 41.0879 74.0539 41.2726C73.8358 41.5354 73.4932 41.6701 73.0939 41.8113C72.6946 41.9546 72.3389 42.0676 72.1687 42.1219C71.2545 42.4043 70.8268 42.4846 70.613 41.9068Z" fill="white"/>
<path d="M8.64497 45.1001C8.64497 45.5389 8.50751 46.0189 8.16712 46.1688L7.43398 46.4989C7.30306 46.5598 7.26596 46.6553 7.26596 46.8009C7.26596 46.8378 7.26815 46.8595 7.27687 46.9095L7.36415 47.7392C7.40343 47.9651 7.55835 48.0021 7.85728 48.0021H13.1747C13.4759 48.0021 13.6308 47.9651 13.6679 47.7392L13.7551 46.9095C13.7617 46.8595 13.7661 46.8378 13.7661 46.8009C13.7661 46.6553 13.729 46.5598 13.598 46.4989L12.8649 46.1688C12.5267 46.0189 12.387 45.5389 12.387 45.1001V35.9315C12.387 35.4927 12.5245 35.0127 12.8649 34.8628L13.598 34.5326C13.729 34.474 13.7661 34.3762 13.7661 34.2307C13.7661 34.1938 13.7639 34.172 13.7551 34.1221L13.6679 33.4987C13.6286 33.2728 13.4737 33.2358 13.1747 33.2358H8.10384C7.80273 33.2358 7.64781 33.2728 7.61072 33.4987L7.52344 34.1221C7.51689 34.172 7.51253 34.1938 7.51253 34.2307C7.51253 34.3762 7.54962 34.4718 7.68054 34.5326L8.2784 34.8628C8.62097 35.0583 8.64279 35.4949 8.64279 35.9315V38.4881C8.64279 38.6662 8.49878 38.8096 8.31986 38.8096H5.43965C5.26073 38.8096 5.11672 38.6662 5.11672 38.4881V35.9315C5.11672 35.4927 5.13854 35.0583 5.48111 34.8628L6.07897 34.5326C6.20989 34.474 6.24698 34.3762 6.24698 34.2307C6.24698 34.1938 6.2448 34.172 6.23607 34.1221L6.14879 33.4987C6.10952 33.2728 5.9546 33.2358 5.65567 33.2358H0.591314C0.290202 33.2358 0.135282 33.2728 0.0981887 33.4987L0.0109099 34.1221C0.00436394 34.172 0 34.1938 0 34.2307C0 34.3762 0.0370935 34.4718 0.168012 34.5326L0.901154 34.8628C1.23936 35.0127 1.37901 35.4949 1.37901 35.9315V45.1001C1.37901 45.5389 1.24154 46.0189 0.901154 46.1688L0.168012 46.4989C0.0370935 46.5598 0 46.6553 0 46.8009C0 46.8378 0.00218197 46.8595 0.0109099 46.9095L0.0981887 47.7392C0.137464 47.9651 0.292384 48.0021 0.591314 48.0021H5.90878C6.20989 48.0021 6.36481 47.9651 6.4019 47.7392L6.48918 46.9095C6.49573 46.8595 6.50009 46.8378 6.50009 46.8009C6.50009 46.6553 6.463 46.5598 6.33208 46.4989L5.59894 46.1688C5.26073 46.0189 5.12109 45.5389 5.12109 45.1001V41.3727C5.12109 41.1946 5.2651 41.0512 5.44402 41.0512H8.32422C8.50314 41.0512 8.64715 41.1946 8.64715 41.3727V45.1001H8.64497Z" fill="white"/>
<path d="M29.603 34.7802C29.603 35.7989 28.7433 36.6243 27.6828 36.6243C26.6224 36.6243 25.7649 35.7989 25.7649 34.7802C25.7649 33.7614 26.6246 32.936 27.6828 32.936C28.7433 32.936 29.603 33.7614 29.603 34.7802Z" fill="white"/>
<path d="M25.5859 48C25.2979 48 25.1495 47.9652 25.1124 47.748L25.0295 46.9204C25.0229 46.8726 25.0229 46.8509 25.0229 46.8162C25.0229 46.6771 25.0622 46.5924 25.1801 46.5273L25.7517 46.2101C26.0681 46.0581 26.2099 45.6041 26.2099 45.1849V39.95C26.2099 39.5113 26.1336 38.953 25.7474 38.7597L25.3808 38.549C25.2499 38.4903 25.2128 38.3926 25.2128 38.2492C25.2128 38.2123 25.215 38.1906 25.2237 38.1406L25.311 37.5172C25.3502 37.2913 25.5052 37.2544 25.8041 37.2544H29.3956C29.5745 37.2544 29.7185 37.3978 29.7185 37.5759V45.1849C29.7185 45.6063 29.8604 46.0581 30.1768 46.2101L30.7484 46.5273C30.8684 46.5924 30.9055 46.6771 30.9055 46.8162C30.9055 46.8509 30.9077 46.8748 30.899 46.9204L30.8161 47.748C30.779 47.9652 30.6306 48 30.3426 48H25.5859Z" fill="white"/>
<path d="M36.4564 37.8127C36.4564 37.8127 36.6593 37.7149 37.0215 37.539C37.7416 37.2023 39.1489 36.6006 40.3119 36.9699C41.32 37.2914 42.1906 38.019 42.1906 39.9305C42.1906 42.1027 42.1906 44.8722 42.1906 45.7236C42.1906 45.9713 42.2015 46.0733 42.3171 46.1363C42.4721 46.2211 42.7404 45.9691 42.9979 45.8366C43.2576 45.7041 43.4016 45.8605 43.5609 46.0343C43.7005 46.1885 43.8663 46.4035 43.7311 46.6881C43.3012 47.5852 42.339 48.1 41.2109 48.1C40.1461 48.1 38.7911 47.4918 38.7911 45.9039C38.7911 44.3161 38.7911 41.0362 38.7911 40.3259C38.7911 39.4744 38.1692 39.1768 37.687 39.2376C36.9582 39.3267 36.428 39.9349 36.428 41.0166V45.1849C36.428 45.6063 36.5698 46.0581 36.8862 46.2102L37.4579 46.5273C37.5779 46.5925 37.615 46.6772 37.615 46.8162C37.615 46.851 37.6172 46.8749 37.6085 46.9205L37.5255 47.7481C37.4884 47.9653 37.3401 48 37.0521 48H32.2932C32.0052 48 31.8568 47.9653 31.8197 47.7481L31.7368 46.9205C31.7302 46.8727 31.7302 46.851 31.7302 46.8162C31.7302 46.6772 31.7695 46.5925 31.8873 46.5273L32.459 46.2102C32.7754 46.0581 32.9172 45.6042 32.9172 45.1849V39.9501C32.9172 39.5113 32.843 38.9531 32.4568 38.7597L32.0903 38.549C31.9593 38.4904 31.9222 38.3927 31.9222 38.2493C31.9222 38.2124 31.9244 38.1906 31.9331 38.1407L32.0204 37.5173C32.0597 37.2914 32.2146 37.2545 32.5136 37.2545H35.8978C36.164 37.2545 36.2665 37.4065 36.3429 37.5759L36.4564 37.8127Z" fill="white"/>
<path d="M82.8953 37.8127C82.8953 37.8127 83.0983 37.7149 83.4605 37.539C84.1805 37.2023 85.5879 36.6006 86.7509 36.9699C87.7589 37.2914 88.6296 38.019 88.6296 39.9305C88.6296 42.1027 88.6296 44.8722 88.6296 45.7236C88.6296 45.9713 88.6405 46.0733 88.7561 46.1363C88.911 46.2211 89.1794 45.9691 89.4369 45.8366C89.6965 45.7041 89.8406 45.8605 89.9998 46.0343C90.1395 46.1885 90.3053 46.4035 90.17 46.6881C89.7402 47.5852 88.7779 48.1 87.6499 48.1C86.5851 48.1 85.23 47.4918 85.23 45.9039C85.23 44.3161 85.23 41.0362 85.23 40.3259C85.23 39.4744 84.6082 39.1768 84.126 39.2376C83.3972 39.3267 82.867 39.9349 82.867 41.0166V45.1849C82.867 45.6063 83.0088 46.0581 83.3252 46.2102L83.8969 46.5273C84.0169 46.5925 84.054 46.6772 84.054 46.8162C84.054 46.851 84.0561 46.8749 84.0474 46.9205L83.9645 47.7481C83.9274 47.9653 83.779 48 83.491 48H78.7321C78.4441 48 78.2957 47.9653 78.2587 47.7481L78.1757 46.9205C78.1692 46.8727 78.1692 46.851 78.1692 46.8162C78.1692 46.6772 78.2085 46.5925 78.3263 46.5273L78.898 46.2102C79.2144 46.0581 79.3562 45.6042 79.3562 45.1849V39.9501C79.3562 39.5113 79.282 38.9531 78.8936 38.7597L78.527 38.549C78.3961 38.4904 78.359 38.3927 78.359 38.2493C78.359 38.2124 78.3612 38.1906 78.3699 38.1407L78.4572 37.5173C78.4965 37.2914 78.6514 37.2545 78.9503 37.2545H82.3346C82.6008 37.2545 82.7033 37.4065 82.7797 37.5759L82.8953 37.8127Z" fill="white"/>
<path d="M65.6621 45.3301C65.9152 45.7341 66.2229 46.0578 66.5393 46.212L67.1109 46.5291C67.2309 46.5943 67.268 46.679 67.268 46.818C67.268 46.8528 67.268 46.8767 67.2615 46.9223L67.1786 47.7499C67.1415 47.9671 66.9931 48.0018 66.7051 48.0018H63.8314C63.3405 48.0018 63.3034 47.8607 63.0808 47.461L60.6719 43.095L59.7664 43.9595V45.1889C59.7664 45.6103 59.965 46.0491 60.2945 46.2142L60.8661 46.5313C60.9861 46.5965 61.0232 46.6812 61.0232 46.8202C61.0232 46.855 61.0254 46.8788 61.0167 46.9245L60.9338 47.752C60.8967 47.9693 60.7483 48.004 60.4603 48.004H55.7058C55.4177 48.004 55.2694 47.9693 55.2323 47.752L55.1494 46.9245C55.1428 46.8767 55.1428 46.855 55.1428 46.8202C55.1428 46.6812 55.1821 46.5965 55.2999 46.5313L55.8716 46.2142C56.188 46.0621 56.3298 45.6081 56.3298 45.1889V35.8161C56.3298 35.3969 56.1989 34.9581 55.8716 34.7909L55.2999 34.4737C55.1799 34.4086 55.1428 34.3239 55.1428 34.1848C55.1428 34.1501 55.1406 34.1284 55.1494 34.0806L55.2323 33.4898C55.2694 33.2725 55.4177 33.2378 55.7058 33.2378H59.1555C59.4937 33.2378 59.7686 33.5115 59.7686 33.8482V40.9641L61.3025 39.5848C61.5207 39.398 61.8786 39.0852 62.0182 38.9462C62.1579 38.8072 62.1862 38.6008 61.9877 38.5183L61.4465 38.275C61.3265 38.2207 61.2916 38.1338 61.2916 38.0013C61.2916 37.9687 61.2938 37.947 61.3003 37.9014L61.3789 37.1455C61.4138 36.9391 61.5556 36.9065 61.8284 36.9065H65.9589C66.2316 36.9065 66.3734 36.9391 66.4083 37.1455L66.4869 37.9014C66.4934 37.947 66.4956 37.9687 66.4956 38.0013C66.5043 38.1642 66.3101 38.2446 66.1901 38.2989C66.1901 38.2989 65.8956 38.3836 65.6294 38.5356C65.3632 38.6877 65.0773 38.9136 64.7195 39.2351L63.1267 40.7577L65.6621 45.3301Z" fill="white"/>
<path d="M87.894 34.3607C87.894 35.9312 89.1727 37.2041 90.7481 37.2041C92.3234 37.2041 93.6021 35.9312 93.6021 34.3607C93.6021 32.7925 92.3234 31.5239 90.7481 31.5239C89.1705 31.5239 87.894 32.7925 87.894 34.3607ZM90.7459 36.5959C89.5043 36.5959 88.5006 35.5967 88.5006 34.3607C88.5006 33.1291 89.5043 32.1278 90.7459 32.1278C91.9831 32.1278 92.9911 33.127 92.9911 34.3607C92.9933 35.5967 91.9852 36.5959 90.7459 36.5959Z" fill="white"/>
<path d="M89.572 35.7425H90.2768V34.5478C90.279 34.5478 90.3204 34.5521 90.5583 34.563C90.9117 34.5782 91.095 34.6412 91.1998 34.9692C91.274 35.1973 91.3089 35.4101 91.4551 35.7425C91.7671 35.749 91.8544 35.749 92.1773 35.749C92.1009 35.5578 91.9853 35.3276 91.9351 35.0039C91.8827 34.6672 91.7671 34.4826 91.5162 34.3132C91.7453 34.2306 91.9766 33.9483 91.9766 33.5356C91.9766 32.8861 91.2958 32.6841 91.047 32.6841C90.7961 32.6841 89.5742 32.6841 89.5742 32.6841V35.7425H89.572ZM90.8485 33.9374C90.6085 33.9374 90.279 33.9374 90.279 33.9374V33.2401C90.279 33.2401 90.5583 33.2401 90.7765 33.2401C90.9925 33.2401 91.2521 33.3314 91.2521 33.5725C91.2521 33.7854 91.0863 33.9374 90.8485 33.9374Z" fill="white"/>
</g>
<defs>
<clipPath id="clip0_23_7">
<rect width="93.6" height="48" fill="white"/>
</clipPath>
</defs>
</svg>
